<svg width="280" height="52" viewBox="0 0 280 52" fill="none" xmlns="http://www.w3.org/2000/svg">
<path fill-rule="evenodd" clip-rule="evenodd" d="M135.443 15.9571L135.402 15.9811L135.072 16.0538L134.717 16.2036L134.387 16.4244L134.106 16.7032L133.882 17.0313L133.724 17.4007L133.632 17.7709H133.743L133.695 17.9015L133.681 18.0231L133.695 18.1446L133.743 18.2752H133.632L133.719 18.6291L133.794 18.8354L133.977 19.1714L134.106 19.3439L134.374 19.6121L134.532 19.7315L134.882 19.9234L135.088 19.9988L135.402 20.0665L135.443 20.0905V19.975L135.568 20.0216L135.695 20.0365L135.822 20.0214L135.947 19.9748V20.0905L135.987 20.0665L136.317 19.9936L136.671 19.8438L136.856 19.7316L137.149 19.49L137.402 19.1853L137.514 19.0007L137.664 18.6456L137.756 18.2752H137.645L137.693 18.1446L137.706 18.0231L137.693 17.9015L137.645 17.7709H137.756L137.664 17.4007L137.506 17.0313L137.282 16.7032L137.002 16.4246L136.671 16.2036L136.317 16.0539L135.987 15.9811L135.947 15.9572V16.0728L135.821 16.0259L135.695 16.0111L135.568 16.0259L135.443 16.0727V15.9571ZM162.213 3.56422L162.103 3.6026L156.665 7.95272L156.617 8.01357L156.6 8.08935V17.1919L156.617 17.2677L156.665 17.3285L162.155 21.7079L175.516 21.7177L175.554 21.731L177.741 23.5003L177.762 23.5455V27.3179L177.74 27.3632L175.528 29.1294L175.491 29.1425H165.536L165.498 29.1293L163.314 27.3817L163.292 27.3365V25.0553L163.278 24.9872L163.241 24.9316L163.185 24.8941L163.117 24.8803H156.775L156.706 24.8941L156.651 24.9316L156.613 24.9872L156.6 25.0553V29.9814L156.617 30.0572L156.665 30.1181L162.155 34.496H178.873L184.362 30.1181L184.41 30.0572L184.427 29.9814V20.8789L184.41 20.8031L184.362 20.7422L178.873 16.3632L165.536 16.3533L165.498 16.34L163.339 14.5929L163.317 14.5477V10.7335L163.339 10.6883L165.525 8.9203L165.562 8.907H175.491L175.528 8.9203L177.714 10.6883L177.736 10.7335V13.0161L177.749 13.0843L177.787 13.1399L177.843 13.1774L177.911 13.1911H184.252L184.32 13.1774L184.376 13.1399L184.413 13.0843L184.427 13.0161V8.08934L184.41 8.01356L184.361 7.95271L178.873 3.57407L162.213 3.56422ZM189.604 3.56422L189.536 3.57797L189.48 3.61547L189.443 3.6711L189.429 3.73922V34.3309L189.443 34.399L189.48 34.4546L189.536 34.4921L189.604 34.5059H215.022L215.09 34.4921L215.146 34.4546L215.183 34.399L215.197 34.3309V29.3175L215.183 29.2493L215.146 29.1937L215.09 29.1562L215.022 29.1425H196.169L196.122 29.095V21.7652L196.169 21.7177H210.826L210.894 21.704L210.949 21.6665L210.987 21.6108L211.001 21.5427V16.5283L210.987 16.4602L210.949 16.4046L210.894 16.3671L210.826 16.3533H196.169L196.122 16.3058V8.97535L196.169 8.92786H215.022L215.09 8.91411L215.146 8.87661L215.183 8.82099L215.197 8.75286V3.73922L215.183 3.6711L215.146 3.61547L215.09 3.57797L215.022 3.56422H189.604ZM220.357 3.56422L220.289 3.57797L220.233 3.61547L220.196 3.6711L220.182 3.73922V34.3309L220.196 34.399L220.233 34.4546L220.289 34.4921L220.357 34.5059H245.776L245.844 34.4921L245.9 34.4546L245.937 34.399L245.951 34.3309V29.3175L245.937 29.2493L245.9 29.1937L245.844 29.1562L245.776 29.1425H226.922L226.875 29.095V21.7652L226.922 21.7177H241.58L241.648 21.704L241.703 21.6665L241.741 21.6108L241.755 21.5427V16.5283L241.741 16.4602L241.703 16.4046L241.648 16.3671L241.58 16.3533H226.922L226.875 16.3058V8.97536L226.922 8.92786H245.776L245.844 8.91411L245.9 8.87661L245.937 8.82099L245.951 8.75286V3.73922L245.937 3.6711L245.9 3.61547L245.844 3.57797L245.776 3.56422H220.357ZM251.135 3.56422L251.067 3.57797L251.012 3.61547L250.974 3.6711L250.96 3.73922V34.3309L250.974 34.399L251.012 34.4546L251.067 34.4921L251.135 34.5059H257.42L257.488 34.4921L257.544 34.4546L257.581 34.399L257.595 34.3309V3.73922L257.581 3.6711L257.544 3.61547L257.488 3.57797L257.42 3.56422H251.135ZM271.842 3.56422L271.782 3.57487L271.729 3.60549L260.27 13.2891L260.224 13.3491L260.208 13.4228V20.9672L260.219 21.0303L260.253 21.0849L272.419 34.4486L272.478 34.4909L272.549 34.5059H279.699L279.793 34.4782L279.858 34.404L279.872 34.3066L279.831 34.217L264.799 16.7059L264.805 16.6389L279.733 3.87226L279.768 3.83159L279.794 3.73135L279.757 3.63179L279.672 3.57243L279.619 3.56422H271.842ZM106.996 43.3216L107.408 43.3413L107.714 43.3941L107.957 43.4837L108.117 43.6027L108.237 43.8031L108.315 44.0784L108.363 44.4452L108.377 44.9546L108.361 45.3596L108.303 45.7329L108.208 46.0191L108.086 46.2097L107.996 46.2918L107.894 46.356L107.63 46.4563L107.293 46.5166L106.865 46.537L104.355 46.5368L104.308 46.4894V43.3691L104.355 43.3216H106.996ZM93.3328 43.3066L94.9083 48.0509L94.8707 48.103H91.7913L91.7535 48.0509L93.3011 43.3066L93.3328 43.3066ZM77.9227 41.7538L77.8546 41.7675L77.799 41.805L77.7615 41.8606L77.7477 41.9288V51.1322L77.7615 51.2004L77.799 51.256L77.8546 51.2935L77.9227 51.3072H84.1674L84.2355 51.2935L84.2911 51.256L84.3286 51.2004L84.3424 51.1322V49.9145L84.3286 49.8464L84.2911 49.7908L84.2355 49.7533L84.1674 49.7395H79.6486L79.6011 49.692V47.1494L79.6486 47.1019H83.8817L83.9498 47.0882L84.0055 47.0507L84.043 46.9951L84.0567 46.9269V45.8972L84.043 45.8291L84.0055 45.7734L83.9498 45.7359L83.8817 45.7222H79.6486L79.6011 45.6747V43.3691L79.6486 43.3216H84.1249L84.1931 43.3079L84.2487 43.2704L84.2862 43.2147L84.2999 43.1466V41.9288L84.2862 41.8606L84.2487 41.805L84.1931 41.7675L84.1249 41.7538H77.9227ZM92.0464 41.7538L91.9441 41.7868L91.8804 41.8733L88.8195 51.0768L88.8125 51.1586L88.8436 51.2345L88.9058 51.288L88.9855 51.3072H90.5759L90.6788 51.2738L90.7424 51.1861L91.2829 49.5198L91.3336 49.4829H95.3212L95.3718 49.5195L95.9252 51.1874L95.9888 51.2742L96.0913 51.3072H97.6474L97.7273 51.2879L97.7895 51.2343L97.8204 51.1582L97.8132 51.0763L94.6793 41.8242L94.5931 41.7624L94.539 41.7538H92.0464ZM102.63 41.7538L102.562 41.7675L102.506 41.805L102.469 41.8606L102.455 41.9288V51.1322L102.469 51.2004L102.506 51.256L102.562 51.2935L102.63 51.3072H104.133L104.201 51.2935L104.257 51.256L104.294 51.2004L104.308 51.1322V48.152L104.355 48.1046L106.89 48.1049L107.21 48.1269L107.499 48.1936L107.743 48.3044L107.942 48.4593L108.098 48.6601L108.215 48.9195L108.279 49.2028L108.303 49.5598L108.303 51.1322L108.316 51.2004L108.354 51.256L108.41 51.2935L108.478 51.3072H109.981L110.049 51.2935L110.105 51.256L110.142 51.2004L110.156 51.1322L110.156 49.1954L110.132 48.7846L110.05 48.394L109.921 48.0806L109.767 47.8519L109.544 47.6397L109.235 47.4645L108.941 47.3715L108.619 47.3254L108.601 47.3052L108.615 47.2879L109.039 47.1763L109.4 47.0233L109.582 46.9133L109.721 46.8026L109.822 46.7005L109.918 46.5716L110.009 46.4017L110.076 46.2221L110.179 45.7844L110.239 45.2499L110.26 44.5868L110.251 44.2045L110.218 43.836L110.168 43.5275L110.096 43.2367L109.996 42.9579L109.891 42.7467L109.756 42.5465L109.58 42.3575L109.395 42.2155L109.177 42.093L108.925 41.9894L108.64 41.9046L108.334 41.8407L107.984 41.7929L107.595 41.7637L107.169 41.7538L102.63 41.7538ZM127.974 41.7538L127.906 41.7675L127.851 41.805L127.813 41.8606L127.799 41.9288V51.1322L127.813 51.2004L127.851 51.256L127.906 51.2935L127.974 51.3072H129.476L129.545 51.2935L129.6 51.256L129.638 51.2004L129.651 51.1322V47.2469L129.699 47.1994H134.01L134.057 47.2469V51.1322L134.071 51.2004L134.108 51.256L134.164 51.2935L134.232 51.3072H135.734L135.803 51.2935L135.858 51.256L135.896 51.2004L135.909 51.1322V41.9288L135.896 41.8606L135.858 41.805L135.803 41.7675L135.734 41.7538H134.232L134.164 41.7675L134.108 41.805L134.071 41.8606L134.057 41.9288V45.5843L134.01 45.6318H129.699L129.651 45.5843V41.9288L129.638 41.8606L129.6 41.805L129.545 41.7675L129.476 41.7538H127.974ZM148.782 41.7538L148.714 41.7675L148.658 41.805L148.621 41.8606L148.607 41.9288V51.1322L148.621 51.2004L148.658 51.256L148.714 51.2935L148.782 51.3072H155.025L155.094 51.2935L155.149 51.256L155.187 51.2004L155.2 51.1322V49.9145L155.187 49.8464L155.149 49.7908L155.094 49.7533L155.025 49.7395H150.508L150.461 49.692V47.1494L150.508 47.1019H154.741L154.809 47.0882L154.865 47.0507L154.902 46.9951L154.916 46.9269V45.8972L154.902 45.8291L154.865 45.7734L154.809 45.7359L154.741 45.7222H150.508L150.461 45.6747V43.3691L150.508 43.3216H154.984L155.052 43.3079L155.107 43.2704L155.145 43.2147L155.159 43.1466V41.9288L155.145 41.8606L155.107 41.805L155.052 41.7675L154.984 41.7538H148.782ZM160.213 41.7538L160.145 41.7675L160.089 41.805L160.052 41.8606L160.038 41.9288V51.1322L160.052 51.2004L160.089 51.256L160.145 51.2935L160.213 51.3072H161.715L161.783 51.2935L161.839 51.256L161.876 51.2004L161.89 51.1322L161.89 45.8323L161.877 44.5879L161.831 43.4122L161.855 43.3868L162.828 45.5377L163.088 46.0746L165.763 51.2131L165.827 51.2819L165.918 51.3072H168.733L168.801 51.2935L168.856 51.256L168.894 51.2004L168.908 51.1322V41.9288L168.894 41.8606L168.856 41.805L168.801 41.7675L168.733 41.7538H167.23L167.162 41.7675L167.107 41.805L167.069 41.8606L167.055 41.9288L167.055 47.2494L167.069 48.473L167.108 49.6283L167.085 49.6519L166.373 48.1408L165.614 46.588L163.183 41.8489L163.119 41.7794L163.027 41.7538H160.213ZM187.279 41.7538L187.211 41.7675L187.155 41.805L187.117 41.8606L187.104 41.9288V51.1322L187.117 51.2004L187.155 51.256L187.211 51.2935L187.279 51.3072H188.781L188.849 51.2935L188.905 51.256L188.942 51.2004L188.956 51.1322V41.9288L188.942 41.8606L188.905 41.805L188.849 41.7675L188.781 41.7538H187.279ZM194.322 41.7538L194.254 41.7675L194.199 41.805L194.161 41.8606L194.147 41.9288V51.1322L194.161 51.2004L194.199 51.256L194.254 51.2935L194.322 51.3072H195.825L195.893 51.2935L195.949 51.256L195.986 51.2004L196 51.1322L196 45.8323L195.987 44.5877L195.941 43.4122L195.966 43.3866L196.938 45.5377L197.197 46.0746L199.873 51.2131L199.937 51.2819L200.028 51.3072H202.842L202.91 51.2935L202.966 51.256L203.003 51.2004L203.017 51.1322V41.9288L203.003 41.8606L202.966 41.805L202.91 41.7675L202.842 41.7538H201.34L201.272 41.7675L201.216 41.805L201.179 41.8606L201.165 41.9288L201.165 47.2494L201.179 48.473L201.218 49.6281L201.195 49.6515L200.482 48.1403L199.724 46.5882L197.293 41.8489L197.228 41.7794L197.137 41.7538H194.322ZM208.283 41.7538L208.214 41.7675L208.159 41.805L208.121 41.8606L208.108 41.9288V51.1322L208.121 51.2004L208.159 51.256L208.214 51.2935L208.283 51.3072H214.528L214.596 51.2935L214.651 51.256L214.689 51.2004L214.703 51.1322V49.9145L214.689 49.8464L214.651 49.7908L214.596 49.7533L214.528 49.7395H210.009L209.962 49.692V47.1494L210.009 47.1019H214.243L214.311 47.0882L214.366 47.0507L214.404 46.9951L214.418 46.9269V45.8972L214.404 45.8291L214.366 45.7734L214.311 45.7359L214.243 45.7222H210.009L209.962 45.6747V43.3691L210.009 43.3216H214.485L214.553 43.3079L214.609 43.2704L214.646 43.2147L214.66 43.1466V41.9288L214.646 41.8606L214.609 41.805L214.553 41.7675L214.485 41.7538H208.283ZM69.1142 41.6704L68.0864 41.7044L67.639 41.7472L67.2386 41.8071L66.8795 41.8857L66.5724 41.9803L66.3121 42.0921L66.098 42.2209L65.8956 42.399L65.7423 42.5927L65.6233 42.799L65.5138 43.0626L65.4288 43.3611L65.3683 43.6936L65.3322 44.0551L65.3196 44.4572L65.3289 44.8479L65.3576 45.2014L65.41 45.5408L65.4753 45.8103L65.5629 46.0589L65.6701 46.2728L65.7968 46.452L65.9704 46.618L66.1534 46.7343L66.3887 46.8407L66.6702 46.9348L66.9904 47.0155L67.8162 47.1513L70.2311 47.3391L70.5481 47.3989L70.764 47.4718L70.9197 47.5666L71.0385 47.7169L71.1135 47.9089L71.1597 48.1582L71.1752 48.4704L71.1529 48.9012L71.0937 49.2203L70.9929 49.4699L70.9288 49.5633L70.8552 49.6352L70.641 49.7468L70.3066 49.8288L69.8684 49.8764L69.3119 49.8923L68.6111 49.8779L68.0707 49.8365L67.6732 49.7672L67.5396 49.725L67.4277 49.6689L67.3519 49.6042L67.2919 49.5263L67.2296 49.4077L67.1818 49.2676L67.1178 48.921L67.0946 48.4181L67.0791 48.352L67.0412 48.2984L66.9863 48.2624L66.9197 48.2493H65.4628L65.3949 48.2629L65.3377 48.3019L65.3 48.3599L65.2878 48.428L65.3028 49.0099L65.3375 49.378L65.3981 49.7223L65.4743 49.9996L65.5871 50.2798L65.7177 50.5059L65.8723 50.6965L66.0495 50.8505L66.2583 50.9767L66.5133 51.0862L66.8169 51.1795L67.1472 51.2522L67.5464 51.3129L67.9891 51.3559L69.0191 51.3906L69.6186 51.3821L70.1587 51.3564L70.644 51.3135L71.0736 51.2535L71.4685 51.1714L71.7933 51.0738L72.0371 50.9706L72.2795 50.8201L72.4511 50.6563L72.5986 50.4524L72.7234 50.2074L72.8255 49.9215L72.9051 49.5938L72.96 49.2419L72.9953 48.8279L73.0073 48.3733L72.9981 48.0049L72.9687 47.664L72.9173 47.3459L72.8472 47.0726L72.7657 46.8525L72.6593 46.6468L72.513 46.4499L72.3613 46.3102L72.2037 46.2085L71.9543 46.0922L71.6811 45.9997L71.3759 45.9216L70.5924 45.7915L68.8033 45.6534L68.1786 45.5882L67.7598 45.5163L67.5179 45.4357L67.4447 45.3843L67.3831 45.3122L67.2788 45.0794L67.2199 44.7665L67.2008 44.3746L67.2248 44.0386L67.3004 43.7505L67.4204 43.5432L67.5759 43.4064L67.8347 43.2998L68.1895 43.2274L68.6708 43.1825L69.2514 43.1682L69.7466 43.1817L70.1288 43.2194L70.4117 43.2812L70.596 43.3644L70.7264 43.4965L70.835 43.7183L70.9073 43.9985L70.9731 44.476L71.0112 44.5278L71.0655 44.5623L71.1308 44.5749H72.6022L72.6703 44.5611L72.7259 44.5236L72.7634 44.468L72.7772 44.3999L72.7648 43.8259L72.7312 43.5147L72.6735 43.2202L72.5926 42.9556L72.4884 42.7208L72.3443 42.4932L72.209 42.3389L72.0338 42.1928L71.7997 42.0574L71.5474 41.9549L71.2513 41.868L70.9273 41.7995L70.5409 41.7429L70.1143 41.7027L69.1142 41.6704ZM119.526 41.6704L118.867 41.6817L118.259 41.7161L117.711 41.7736L117.218 41.8551L116.789 41.9591L116.4 42.094L116.109 42.2355L115.858 42.4082L115.646 42.6206L115.449 42.9076L115.299 43.2204L115.181 43.5664L115.081 43.9956L115.014 44.4418L114.972 44.958L114.958 45.5257L114.968 46.4793L114.998 47.3338L115.049 48.0915L115.119 48.7531L115.213 49.3356L115.321 49.7927L115.451 50.1656L115.624 50.477L115.825 50.6919L116.093 50.878L116.422 51.0335L116.804 51.1573L117.288 51.2619L117.807 51.332L118.412 51.3759L119.085 51.3906L120.215 51.3545L120.697 51.3093L121.124 51.2463L121.502 51.1636L121.821 51.0643L122.084 50.9478L122.294 50.8136L122.471 50.6449L122.624 50.4302L122.753 50.1708L122.857 49.8678L122.938 49.5213L122.996 49.1368L123.03 48.7029L123.042 48.2228L123.028 47.9729L122.991 47.9173L122.935 47.8798L122.867 47.8661H121.362L121.294 47.8799L121.236 47.9194L121.199 47.9782L121.187 48.047L121.196 48.3166L121.17 48.7494L121.095 49.0939L120.978 49.3421L120.892 49.4481L120.802 49.5237L120.699 49.5819L120.55 49.6406L120.179 49.726L119.687 49.7775L119.066 49.7946L118.334 49.7633L118.028 49.7243L117.757 49.6679L117.542 49.5999L117.371 49.5186L117.237 49.422L117.144 49.3115L117.072 49.1544L117.009 48.9223L116.956 48.6169L116.914 48.25L116.858 47.3059L116.839 46.0819L116.861 45.1667L116.924 44.4681L116.971 44.1907L117.029 43.9638L117.093 43.7961L117.167 43.6751L117.267 43.5805L117.419 43.4932L117.609 43.4232L117.83 43.368L118.415 43.2913L119.177 43.2657L119.737 43.282L120.2 43.3325L120.527 43.4105L120.654 43.4615L120.762 43.5266L120.9 43.6815L121.013 43.9453L121.077 44.2767L121.112 44.8578L121.15 44.9135L121.205 44.951L121.274 44.9647H122.779L122.847 44.9509L122.905 44.9114L122.942 44.8526L122.954 44.7838L122.941 44.2981L122.91 43.9022L122.856 43.5379L122.782 43.216L122.687 42.9314L122.57 42.6836L122.432 42.4722L122.272 42.2972L122.077 42.1486L121.839 42.0204L121.542 41.9075L121.223 41.8222L120.878 41.7581L120.472 41.7094L120.024 41.6802L119.526 41.6704ZM178.117 41.6705L177.233 41.6917L176.473 41.7571L175.84 41.8692L175.378 42.017L175.18 42.1144L174.995 42.2326L174.808 42.3846L174.65 42.5452L174.505 42.7263L174.374 42.9274L174.262 43.1362L174.156 43.3763L174.078 43.621L174.009 43.952L173.91 44.7776L173.849 45.9121L173.829 47.3287L173.841 47.9128L173.878 48.4462L173.941 48.9329L174.033 49.3792L174.141 49.7437L174.278 50.0722L174.44 50.3495L174.628 50.577L174.857 50.769L175.139 50.9353L175.473 51.0752L175.859 51.1892L176.291 51.2767L176.78 51.3399L177.322 51.3778L177.915 51.3906L178.558 51.3815L179.14 51.3538L179.662 51.3076L180.123 51.2431L180.546 51.155L180.875 51.0569L181.159 50.937L181.411 50.778L181.594 50.6018L181.751 50.3817L181.884 50.1172L181.987 49.8249L182.074 49.466L182.136 49.0677L182.173 48.6173L182.186 48.1211L182.159 46.3751L182.145 46.3078L182.107 46.2531L182.052 46.2163L181.984 46.2028H178.098L178.03 46.2165L177.974 46.254L177.937 46.3097L177.923 46.3778V47.407L177.937 47.4751L177.974 47.5308L178.03 47.5683L178.098 47.582H180.263L180.31 47.6299L180.28 48.4996L180.205 48.9387L180.149 49.1146L180.08 49.2654L180.007 49.3761L179.918 49.4682L179.805 49.5445L179.658 49.6102L179.254 49.714L178.715 49.7747L178.042 49.7946L177.364 49.7706L176.814 49.6985L176.591 49.6447L176.403 49.5791L176.257 49.5054L176.14 49.4192L176.037 49.3015L175.956 49.161L175.886 48.9899L175.828 48.7835L175.751 48.2723L175.725 47.6284L175.711 46.4121L175.718 45.4574L175.744 44.8078L175.823 44.287L175.883 44.0713L175.95 43.9067L176.032 43.7642L176.126 43.6543L176.246 43.5641L176.407 43.4827L176.605 43.4154L176.827 43.3627L177.393 43.2899L178.111 43.2656L178.762 43.2803L179.27 43.3221L179.649 43.3925L179.78 43.4355L179.881 43.4852L179.972 43.5574L180.043 43.645L180.156 43.8729L180.24 44.2104L180.269 44.4945L180.288 44.5567L180.326 44.6065L180.38 44.6395L180.443 44.6515H181.978L182.046 44.6378L182.104 44.5987L182.141 44.5404L182.153 44.472L182.146 44.1925L182.111 43.7861L182.054 43.4249L181.968 43.0865L181.861 42.8039L181.73 42.5623L181.574 42.3626L181.394 42.2061L181.181 42.0815L180.912 41.973L180.587 41.8808L180.222 41.8076L179.781 41.7475L179.288 41.7048L178.117 41.6705Z" fill="#D31818"/>
<path fill-rule="evenodd" clip-rule="evenodd" d="M137.133 3.69327L137.659 3.76005L138.251 3.86614L138.839 4.00155L139.422 4.16549L139.999 4.35711L140.569 4.57543L141.132 4.81945L141.685 5.08826L142.23 5.38128L142.764 5.69741L143.287 6.03574L143.797 6.39523L144.294 6.77526L144.777 7.17479L145.245 7.59291L145.698 8.02854L146.133 8.48132L146.551 8.94979L146.95 9.43323L147.33 9.93075L147.689 10.4416L148.027 10.9646L148.343 11.4989L148.636 12.0436L148.904 12.5981L149.148 13.1612L149.366 13.7323L149.557 14.3097L149.72 14.8933L149.855 15.482L149.961 16.0747L150.026 16.5955L149.987 16.6346H145.697L145.628 16.6484L145.573 16.6859L145.535 16.7415L145.522 16.8097V17.7235L145.474 17.7709H144.083L143.962 17.6699L143.897 17.6571L143.831 17.6699L143.71 17.7709H141.659L141.538 17.6697L141.472 17.6569L141.406 17.6697L141.286 17.7709H135.994L135.947 17.7235V12.4308L136.048 12.3105L136.061 12.2447L136.048 12.1788L135.947 12.0585V10.007L136.048 9.88685L136.06 9.821L136.048 9.75515L135.947 9.63503V8.24424L135.994 8.19676H136.907L136.976 8.18301L137.031 8.14551L137.069 8.08988L137.082 8.02176V3.73755L137.133 3.69327ZM134.256 3.69323L134.307 3.73756V8.02176L134.32 8.08989L134.358 8.14551L134.414 8.18301L134.482 8.19676H135.395L135.443 8.24425V9.63503L135.342 9.75515L135.329 9.821L135.342 9.88685L135.443 10.007V12.0585L135.342 12.1788L135.329 12.2447L135.342 12.3105L135.443 12.4308V17.7235L135.395 17.771H130.103L129.982 17.6701L129.917 17.6573L129.851 17.6701L129.73 17.771H127.678L127.558 17.6701L127.492 17.6573L127.426 17.6701L127.306 17.771H125.914L125.867 17.7235V16.8097L125.853 16.7415L125.816 16.6859L125.76 16.6484L125.692 16.6347H121.408L121.363 16.5844L121.43 16.0583L121.536 15.4662L121.672 14.8785L121.836 14.2955L122.027 13.7182L122.246 13.1478L122.49 12.5853L122.759 12.0315L123.052 11.4872L123.368 10.9532L123.706 10.4307L124.066 9.9203L124.446 9.42307L124.845 8.94014L125.263 8.47178L125.699 8.01969L126.152 7.58424L126.621 7.1663L127.104 6.76716L127.602 6.38753L128.112 6.02833L128.636 5.6903L129.17 5.37453L129.715 5.08212L130.269 4.81352L130.833 4.56989L131.404 4.35202L131.981 4.16108L132.565 3.99771L133.154 3.8629L133.747 3.75755L134.256 3.69323ZM135.395 18.2752L135.443 18.3227V23.6152L135.342 23.7354L135.329 23.8013L135.342 23.8671L135.443 23.9874V26.0398L135.342 26.16L135.329 26.2259L135.342 26.2917L135.443 26.412V27.8039L135.395 27.8514H134.482L134.414 27.8652L134.358 27.9027L134.32 27.9583L134.307 28.0264V32.3112L134.256 32.3554L133.73 32.2886L133.138 32.1825L132.55 32.047L131.967 31.883L131.39 31.6913L130.819 31.4729L130.257 31.2288L129.703 30.9598L129.159 30.6668L128.625 30.3506L128.102 30.0124L127.592 29.6527L127.094 29.2726L126.611 28.8729L126.143 28.4548L125.691 28.019L125.255 27.5662L124.837 27.0976L124.438 26.6141L124.058 26.1165L123.699 25.6055L123.361 25.0824L123.045 24.5478L122.753 24.0032L122.484 23.4486L122.24 22.8854L122.022 22.3141L121.831 21.7366L121.668 21.1528L121.533 20.5641L121.428 19.9713L121.362 19.4503L121.401 19.4111H125.692L125.76 19.3974L125.816 19.3599L125.853 19.3043L125.867 19.2361V18.3227L125.914 18.2752H127.306L127.426 18.376L127.492 18.3888L127.558 18.376L127.678 18.2752H129.73L129.851 18.376L129.917 18.3888L129.982 18.376L130.103 18.2752H135.395ZM145.474 18.2752L145.522 18.3226V19.2361L145.535 19.3043L145.573 19.3599L145.628 19.3974L145.697 19.4111H149.981L150.025 19.4614L149.958 19.9875L149.852 20.5797L149.717 21.1676L149.553 21.7506L149.361 22.328L149.143 22.8985L148.898 23.461L148.63 24.0147L148.337 24.5593L148.02 25.0935L147.682 25.616L147.322 26.1265L146.942 26.6238L146.543 27.1071L146.125 27.5753L145.689 28.0275L145.236 28.4632L144.768 28.8811L144.284 29.2803L143.787 29.66L143.276 30.0195L142.753 30.3575L142.219 30.6732L141.674 30.9658L141.119 31.2345L140.556 31.4783L139.985 31.6962L139.407 31.8873L138.824 32.0507L138.235 32.1856L137.642 32.2911L137.133 32.3555L137.082 32.3112V28.0264L137.069 27.9583L137.031 27.9027L136.976 27.8652L136.907 27.8514H135.994L135.947 27.8039V26.412L136.048 26.2917L136.06 26.2259L136.048 26.16L135.947 26.0398V23.9874L136.048 23.8671L136.06 23.8013L136.048 23.7354L135.947 23.6152V18.3226L135.994 18.2752H141.286L141.406 18.3764L141.472 18.3892L141.538 18.3764L141.659 18.2752H143.71L143.831 18.3762L143.897 18.389L143.962 18.3762L144.083 18.2752H145.474ZM135.69 0L134.777 0.0229757L133.862 0.0922911L132.961 0.206709L132.075 0.365074L131.203 0.566319L130.348 0.809117L129.511 1.0926L128.693 1.4154L127.894 1.77646L127.117 2.17474L126.362 2.60876L125.63 3.07788L124.923 3.58054L124.242 4.11576L123.587 4.68238L122.961 5.27911L122.363 5.90512L121.796 6.55912L121.26 7.23996L120.757 7.94672L120.287 8.67784L119.853 9.43217L119.454 10.209L119.092 11.0072L118.768 11.8247L118.484 12.6616L118.241 13.5161L118.039 14.3873L117.879 15.2738L117.764 16.1747L117.694 17.0887L117.67 18.0145L117.693 18.9409L117.762 19.8551L117.877 20.7561L118.035 21.643L118.237 22.5146L118.479 23.3693L118.763 24.2068L119.086 25.0251L119.447 25.8235L119.845 26.601L120.279 27.3558L120.748 28.0877L121.251 28.7948L121.786 29.4762L122.353 30.1308L122.95 30.7572L123.576 31.3548L124.23 31.922L124.911 32.4579L125.618 32.9614L126.349 33.4311L127.103 33.8659L127.88 34.2648L128.678 34.6267L129.496 34.9501L130.333 35.2343L131.187 35.478L132.059 35.68L132.945 35.8392L133.846 35.9545L134.76 36.0247L135.686 36.0486L136.612 36.0255L137.526 35.9562L138.427 35.8417L139.314 35.6833L140.186 35.4821L141.04 35.2392L141.877 34.9558L142.696 34.6328L143.494 34.2717L144.271 33.8735L145.026 33.4393L145.758 32.9701L146.465 32.4673L147.146 31.932L147.801 31.3655L148.427 30.7685L149.025 30.1424L149.592 29.4883L150.128 28.8072L150.631 28.1005L151.101 27.3695L151.535 26.6148L151.934 25.8379L152.296 25.0398L152.619 24.222L152.904 23.385L153.147 22.5304L153.349 21.6591L153.508 20.7727L153.624 19.8715L153.694 18.9574L153.718 18.0315L153.695 17.1051L153.625 16.1911L153.511 15.2901L153.353 14.4034L153.151 13.5318L152.908 12.6773L152.625 11.8399L152.302 11.0217L151.941 10.2234L151.543 9.44598L151.109 8.69127L150.64 7.95953L150.137 7.25255L149.602 6.57124L149.035 5.91675L148.438 5.29039L147.812 4.69295L147.158 4.12576L146.477 3.58979L145.771 3.08653L145.04 2.61705L144.285 2.18226L143.509 1.78339L142.711 1.42162L141.893 1.09819L141.056 0.814001L140.201 0.570363L139.33 0.36837L138.444 0.209203L137.543 0.0939663L136.629 0.0238207L135.69 0Z" fill="#97A09A"/>
<path fill-rule="evenodd" clip-rule="evenodd" d="M11.6362 3.56422L11.5363 3.59554L11.4722 3.67825L0.0769081 34.2699L0.067356 34.3528L0.0972495 34.4307L0.159886 34.4859L0.240942 34.5059H6.79146L6.8445 34.4977L6.92952 34.4385L15.5959 11.0397L15.6281 11.0025L15.6706 11.0026L19.8691 22.275L19.833 22.327H14.3724L14.2715 22.3591L14.2075 22.4435L12.4336 27.4573L12.4252 27.5397L12.4557 27.6168L12.5181 27.6712L12.5986 27.6908H21.7754L21.8259 27.7256L24.3445 34.3928L24.4087 34.4749L24.5081 34.5059H31.0875L31.1685 34.4859L31.2312 34.4307L31.261 34.3528L31.2515 34.2699L19.8559 3.63152L19.7709 3.5724L19.718 3.56422H11.6362ZM35.7127 3.56422L35.6446 3.57797L35.589 3.61547L35.5515 3.6711L35.5377 3.73922V34.3309L35.5515 34.399L35.589 34.4546L35.6446 34.4921L35.7127 34.5059H42.0539L42.122 34.4921L42.1777 34.4546L42.2151 34.399L42.2289 34.3309V12.6301L51.1803 34.442L51.264 34.4981L51.3155 34.5059H56.8547L56.9523 34.4762L57.0167 34.3971L65.9083 12.6082L65.9146 34.3309L65.9283 34.399L65.9658 34.4546L66.0214 34.4921L66.0896 34.5059H72.4323L72.5004 34.4922L72.5559 34.4548L72.5934 34.3992L72.6073 34.3311L72.6328 3.73949L72.6196 3.6725L72.5817 3.61567L72.5249 3.57755L72.4578 3.56422H63.1807L63.0849 3.5927L63.0203 3.66904L54.0948 24.0278H54.0487L45.1238 3.66904L45.0593 3.5927L44.9635 3.56422H35.7127ZM77.8881 3.56422L77.82 3.57797L77.7643 3.61547L77.7268 3.6711L77.7131 3.73922V34.3309L77.7268 34.399L77.7643 34.4546L77.82 34.4921L77.8881 34.5059H84.23L84.2981 34.4921L84.3537 34.4546L84.3912 34.399L84.405 34.3309V12.6301L93.356 34.442L93.4398 34.4981L93.4912 34.5059H99.0304L99.128 34.4762L99.1924 34.3971L108.085 12.6082L108.091 34.3309L108.105 34.399L108.143 34.4546L108.198 34.4921L108.266 34.5059H114.608L114.676 34.4922L114.732 34.4548L114.769 34.3992L114.783 34.3311L114.809 3.73949L114.796 3.6725L114.758 3.61567L114.701 3.57755L114.634 3.56422H105.356L105.261 3.5927L105.196 3.66904L96.2715 24.0278H96.2254L87.3002 3.66904L87.2357 3.5927L87.1399 3.56422H77.8881ZM0.175 45.5605L0.106874 45.5743L0.0512491 45.6118L0.0137497 45.6674L0 45.7355V46.7722L0.0137497 46.8403L0.0512491 46.896L0.106874 46.9335L0.175 46.9472H62.7714L62.8395 46.9335L62.8952 46.896L62.9327 46.8403L62.9464 46.7722V45.7355L62.9327 45.6674L62.8952 45.6118L62.8395 45.5743L62.7714 45.5605H0.175ZM217.278 45.5605L217.21 45.5743L217.154 45.6118L217.117 45.6674L217.103 45.7355V46.7722L217.117 46.8403L217.154 46.896L217.21 46.9335L217.278 46.9472H245.776L245.844 46.9335L245.9 46.896L245.937 46.8403L245.951 46.7722V45.7355L245.937 45.6674L245.9 45.6118L245.844 45.5743L245.776 45.5605H217.278ZM248.257 45.5605L248.189 45.5743L248.133 45.6118L248.096 45.6674L248.082 45.7355V46.7722L248.096 46.8403L248.133 46.896L248.189 46.9335L248.257 46.9472H254.128L254.196 46.9335L254.251 46.896L254.289 46.8403L254.303 46.7722V45.7355L254.289 45.6674L254.251 45.6118L254.196 45.5743L254.128 45.5605H248.257ZM256.548 45.5605L256.479 45.5743L256.424 45.6118L256.386 45.6674L256.373 45.7355V46.7722L256.386 46.8403L256.424 46.896L256.479 46.9335L256.548 46.9472H261.319L261.388 46.9335L261.443 46.896L261.481 46.8403L261.494 46.7722V45.7355L261.481 45.6674L261.443 45.6118L261.388 45.5743L261.319 45.5605H256.548ZM263.728 45.5605L263.66 45.5743L263.604 45.6118L263.567 45.6674L263.553 45.7355V46.7722L263.567 46.8403L263.604 46.896L263.66 46.9335L263.728 46.9472H264.914L264.982 46.9335L265.038 46.896L265.075 46.8403L265.089 46.7722V45.7355L265.075 45.6674L265.038 45.6118L264.982 45.5743L264.914 45.5605H263.728ZM274.326 44.2604L272.854 44.2642L271.727 44.2909L271.279 44.3199L270.898 44.3637L270.565 44.429L270.302 44.5149L270.092 44.6269L269.932 44.766L269.816 44.9306L269.736 45.1226L269.683 45.347L269.653 45.6101L269.635 46.247L269.643 46.8937L269.665 47.1607L269.713 47.4118L269.773 47.5748L269.874 47.7387L270.021 47.8784L270.249 48.0039L270.495 48.0834L270.803 48.1437L271.167 48.186L271.622 48.2158L272.786 48.243L274.321 48.2472L274.966 48.2056L275.693 48.0905L276.457 47.9116L277.217 47.6729L277.58 47.5324L277.914 47.3819L278.222 47.2172L278.502 47.0339L278.704 46.8663L278.869 46.6801L278.977 46.4877L279.022 46.2849V46.2229L278.977 46.0199L278.869 45.8274L278.704 45.6412L278.502 45.4735L278.235 45.2978L277.934 45.1353L277.596 44.9816L277.238 44.8416L276.456 44.5957L275.693 44.4169L274.968 44.3021L274.326 44.2604Z" fill="white"/>
</svg>
